<svg width="30" height="35" viewBox="0 0 30 35" fill="none" xmlns="http://www.w3.org/2000/svg">
<rect x="0.5" y="6.86361" width="20.4211" height="27.6364" rx="1.5" stroke="black"/>
<mask id="path-2-inside-1" fill="white">
<path fill-rule="evenodd" clip-rule="evenodd" d="M9.93375 0C8.82918 0 7.93375 0.895429 7.93375 2V3.97726H21.0078C22.1124 3.97726 23.0078 4.87269 23.0078 5.97726V28.6364H27.3548C28.4594 28.6364 29.3548 27.741 29.3548 26.6364V2C29.3548 0.895431 28.4594 0 27.3548 0H9.93375Z"/>
</mask>
<path d="M7.93375 3.97726H6.93375V4.97726H7.93375V3.97726ZM23.0078 28.6364H22.0078V29.6364H23.0078V28.6364ZM8.93375 2C8.93375 1.44771 9.38146 1 9.93375 1V-1C8.27689 -1 6.93375 0.343144 6.93375 2H8.93375ZM8.93375 3.97726V2H6.93375V3.97726H8.93375ZM7.93375 4.97726H21.0078V2.97726H7.93375V4.97726ZM21.0078 4.97726C21.5601 4.97726 22.0078 5.42498 22.0078 5.97726H24.0078C24.0078 4.32041 22.6647 2.97726 21.0078 2.97726V4.97726ZM22.0078 5.97726V28.6364H24.0078V5.97726H22.0078ZM27.3548 27.6364H23.0078V29.6364H27.3548V27.6364ZM28.3548 26.6364C28.3548 27.1887 27.9071 27.6364 27.3548 27.6364V29.6364C29.0117 29.6364 30.3548 28.2933 30.3548 26.6364H28.3548ZM28.3548 2V26.6364H30.3548V2H28.3548ZM27.3548 1C27.9071 1 28.3548 1.44772 28.3548 2H30.3548C30.3548 0.343145 29.0117 -1 27.3548 -1V1ZM9.93375 1H27.3548V-1H9.93375V1Z" fill="black" mask="url(#path-2-inside-1)"/>
</svg>
