<svg width="43" height="35" viewBox="0 0 43 35" fill="none" xmlns="http://www.w3.org/2000/svg">
<path fill-rule="evenodd" clip-rule="evenodd" d="M25.1197 32.0982L39.2585 17.9594L39.276 17.9419C43.3805 13.8375 43.3805 7.18282 39.276 3.07835C35.1716 -1.02605 28.5171 -1.02611 24.4126 3.07818H24.4126H24.4126L24.4125 3.07821L24.4125 3.07821C20.308 -1.02611 13.6534 -1.02607 9.54902 3.07835C6.74592 5.88145 5.85717 9.87398 6.88277 13.4313C8.99286 13.0491 11.2308 13.545 13.0092 14.9187C13.4463 15.2564 14.0732 15.2564 14.5102 14.9187C17.5537 12.5678 21.9426 12.788 24.734 15.5794C27.7645 18.6099 27.7645 23.5232 24.7342 26.5537L24.7342 26.5538V26.5539L21.4477 29.8404L23.7055 32.0982C24.096 32.4887 24.7292 32.4887 25.1197 32.0982Z" fill="#4E50B8"/>
<path fill-rule="evenodd" clip-rule="evenodd" d="M4.46726 26.1315C4.45989 26.1242 4.45254 26.1169 4.44521 26.1095C1.99019 23.6545 1.99019 19.6741 4.44521 17.2191C6.66053 15.0038 10.1179 14.7875 12.5758 16.5703C13.0228 16.8945 13.6484 16.8945 14.0955 16.5703C16.5533 14.7875 20.0107 15.0038 22.226 17.2191C24.681 19.6741 24.681 23.6544 22.2261 26.1095C22.2261 26.1095 22.2261 26.1095 22.2261 26.1095V26.1095C22.2261 26.1095 22.2261 26.1095 22.2261 26.1096L14.0428 34.2928C13.6523 34.6834 13.0191 34.6834 12.6286 34.2928L4.46726 26.1315Z" fill="#4E50B8"/>
</svg>
