<svg width="43" height="35" viewBox="0 0 43 35" fill="none" xmlns="http://www.w3.org/2000/svg">
<mask id="path-1-inside-1" fill="white">
<path fill-rule="evenodd" clip-rule="evenodd" d="M25.1197 32.0982L39.2591 17.9588L39.276 17.9419C43.3805 13.8375 43.3805 7.18281 39.276 3.07835C35.1716 -1.02606 28.5171 -1.02612 24.4126 3.07817H24.4126H24.4126L24.4125 3.07821L24.4124 3.07821C20.308 -1.02611 13.6534 -1.02607 9.54902 3.07835C6.74591 5.88146 5.85716 9.874 6.88277 13.4313C8.99286 13.0492 11.2308 13.545 13.0092 14.9188C13.4463 15.2564 14.0732 15.2564 14.5103 14.9188C17.5537 12.5678 21.9426 12.7881 24.734 15.5795C27.7645 18.6099 27.7645 23.5232 24.7342 26.5537V26.5538V26.5539L21.4477 29.8404L23.7055 32.0982C24.096 32.4887 24.7292 32.4887 25.1197 32.0982Z"/>
</mask>
<path d="M39.2591 17.9588L38.5527 17.251L38.552 17.2517L39.2591 17.9588ZM25.1197 32.0982L24.4126 31.3911L24.4126 31.3911L25.1197 32.0982ZM39.276 17.9419L39.9824 18.6498L39.9831 18.649L39.276 17.9419ZM39.276 3.07835L38.5689 3.78545L38.5689 3.78545L39.276 3.07835ZM24.4126 3.07817V4.07817H24.8268L25.1197 3.7853L24.4126 3.07817ZM24.4126 3.07817V2.07817H23.9907L23.6963 2.38031L24.4126 3.07817ZM24.4125 3.07821L24.4074 4.0782L24.8323 4.08037L25.1288 3.77608L24.4125 3.07821ZM24.4124 3.07821L23.7054 3.78533L23.9961 4.0761L24.4073 4.0782L24.4124 3.07821ZM9.54902 3.07835L8.84191 2.37124L8.84191 2.37124L9.54902 3.07835ZM6.88277 13.4313L5.92191 13.7084L6.17215 14.5763L7.06099 14.4153L6.88277 13.4313ZM13.0092 14.9188L13.6205 14.1274L13.6205 14.1274L13.0092 14.9188ZM14.5103 14.9188L15.1216 15.7102L15.1216 15.7102L14.5103 14.9188ZM24.7342 26.5537L24.0271 25.8466L23.7342 26.1395V26.5537H24.7342ZM24.7342 26.5539L25.4413 27.261L25.7342 26.9681V26.5539H24.7342ZM21.4477 29.8404L20.7406 29.1333L20.0335 29.8404L20.7406 30.5475L21.4477 29.8404ZM23.7055 32.0982L24.4126 31.3911L24.4126 31.3911L23.7055 32.0982ZM38.552 17.2517L24.4126 31.3911L25.8268 32.8053L39.9662 18.6659L38.552 17.2517ZM38.5697 17.2341L38.5527 17.251L39.9654 18.6667L39.9824 18.6498L38.5697 17.2341ZM38.5689 3.78545C42.2828 7.49939 42.2828 13.5209 38.5689 17.2348L39.9831 18.649C44.4781 14.154 44.4781 6.86623 39.9831 2.37124L38.5689 3.78545ZM25.1197 3.7853C28.8337 0.0715151 34.855 0.0715679 38.5689 3.78545L39.9831 2.37124C35.4882 -2.12368 28.2005 -2.12375 23.7055 2.37105L25.1197 3.7853ZM24.4126 4.07817H24.4126V2.07817H24.4126V4.07817ZM24.4126 4.07817H24.4126V2.07817H24.4126V4.07817ZM25.1288 3.77608L25.1288 3.77604L23.6963 2.38031L23.6963 2.38035L25.1288 3.77608ZM24.4073 4.0782L24.4074 4.0782L24.4176 2.07822L24.4176 2.07822L24.4073 4.0782ZM10.2561 3.78546C13.97 0.0715593 19.9914 0.071519 23.7054 3.78533L25.1195 2.37109C20.6245 -2.12374 13.3368 -2.12369 8.84191 2.37124L10.2561 3.78546ZM7.84364 13.1543C6.91479 9.93261 7.72066 6.32092 10.2561 3.78546L8.84191 2.37124C5.77116 5.442 4.79953 9.81539 5.92191 13.7084L7.84364 13.1543ZM7.06099 14.4153C8.90186 14.0819 10.8509 14.5152 12.3979 15.7102L13.6205 14.1274C11.6106 12.5748 9.08387 12.0164 6.70456 12.4474L7.06099 14.4153ZM12.3979 15.7102C13.1951 16.3259 14.3244 16.3259 15.1216 15.7102L13.8989 14.1274C13.822 14.1868 13.6975 14.1868 13.6205 14.1274L12.3979 15.7102ZM15.1216 15.7102C17.772 13.6628 21.5958 13.8554 24.0269 16.2866L25.4412 14.8723C22.2895 11.7207 17.3354 11.4729 13.8989 14.1274L15.1216 15.7102ZM24.0269 16.2866C26.6669 18.9265 26.6669 23.2066 24.0271 25.8466L25.4413 27.2608C28.8622 23.8398 28.8621 18.2933 25.4412 14.8723L24.0269 16.2866ZM23.7342 26.5537V26.5538H25.7342V26.5537H23.7342ZM23.7342 26.5538V26.5539H25.7342V26.5538H23.7342ZM24.0271 25.8468L20.7406 29.1333L22.1548 30.5475L25.4413 27.261L24.0271 25.8468ZM24.4126 31.3911L22.1548 29.1333L20.7406 30.5475L22.9984 32.8053L24.4126 31.3911ZM24.4126 31.3911H24.4126L22.9984 32.8053C23.7794 33.5864 25.0458 33.5864 25.8268 32.8053L24.4126 31.3911Z" fill="black" mask="url(#path-1-inside-1)"/>
<mask id="path-3-inside-2" fill="white">
<path fill-rule="evenodd" clip-rule="evenodd" d="M4.46767 26.1319C4.46017 26.1245 4.45268 26.117 4.44521 26.1096C1.99019 23.6545 1.99019 19.6742 4.44521 17.2191C6.66053 15.0038 10.1179 14.7875 12.5758 16.5703C13.0228 16.8945 13.6484 16.8945 14.0955 16.5703C16.5533 14.7875 20.0107 15.0038 22.226 17.2191C24.681 19.6741 24.681 23.6544 22.2261 26.1095C22.2261 26.1095 22.2261 26.1095 22.2261 26.1095V26.1095C22.2261 26.1095 22.2261 26.1095 22.2261 26.1096L14.0428 34.2928C13.6523 34.6834 13.0191 34.6834 12.6286 34.2928L4.46767 26.1319Z"/>
</mask>
<path d="M4.46767 26.1319L5.17479 25.4248L5.17128 25.4213L4.46767 26.1319ZM22.2261 26.1095L22.9332 26.8166L22.2261 26.1095ZM12.5758 16.5703L13.1629 15.7608L12.5758 16.5703ZM14.0955 16.5703L14.6826 17.3798L14.0955 16.5703ZM5.17128 25.4213C5.16495 25.415 5.15863 25.4088 5.15231 25.4024L3.7381 26.8167C3.74674 26.8253 3.75539 26.8339 3.76406 26.8425L5.17128 25.4213ZM5.15231 25.4024C3.08782 23.338 3.08782 19.9907 5.15231 17.9262L3.7381 16.512C0.892556 19.3576 0.892556 23.9711 3.7381 26.8167L5.15231 25.4024ZM5.15231 17.9262C7.01457 16.064 9.92242 15.8811 11.9886 17.3798L13.1629 15.7608C10.3134 13.694 6.30649 13.9436 3.7381 16.512L5.15231 17.9262ZM14.6826 17.3798C16.7488 15.8811 19.6566 16.064 21.5189 17.9263L22.9331 16.512C20.3647 13.9436 16.3578 13.694 13.5083 15.7608L14.6826 17.3798ZM21.5189 17.9263C23.5834 19.9907 23.5834 23.3379 21.519 25.4024L22.9332 26.8166C25.7787 23.971 25.7786 19.3575 22.9331 16.512L21.5189 17.9263ZM21.519 25.4024L13.3357 33.5857L14.7499 34.9999L22.9332 26.8167L21.519 25.4024ZM13.3357 33.5857L5.17478 25.4248L3.76057 26.839L11.9215 34.9999L13.3357 33.5857ZM13.3357 33.5857L13.3357 33.5857L11.9215 34.9999C12.7025 35.781 13.9689 35.781 14.7499 34.9999L13.3357 33.5857ZM21.519 26.8166C21.1285 26.4261 21.1285 25.793 21.519 25.4024L22.9332 26.8167C23.3237 26.4261 23.3237 25.7929 22.9332 25.4024L21.519 26.8166ZM21.519 25.4024C21.1255 25.7958 21.1314 26.429 21.519 26.8166L22.9332 25.4024C23.3208 25.79 23.3267 26.4231 22.9332 26.8166L21.519 25.4024ZM11.9886 17.3798C12.7859 17.958 13.8853 17.958 14.6826 17.3798L13.5083 15.7608C13.4115 15.831 13.2598 15.831 13.1629 15.7608L11.9886 17.3798Z" fill="black" mask="url(#path-3-inside-2)"/>
</svg>
