<svg width="107" height="103" viewBox="0 0 107 103" fill="none" xmlns="http://www.w3.org/2000/svg">
<ellipse cx="41.4615" cy="23.9209" rx="25.5157" ry="23.9209" fill="#4E50B8"/>
<path fill-rule="evenodd" clip-rule="evenodd" d="M82.9259 102.355C79.1067 70.8412 61.9948 47.0708 41.4629 47.0708C20.9311 47.0708 3.81919 70.8412 0 102.355H82.9259Z" fill="#4E50B8"/>
<path fill-rule="evenodd" clip-rule="evenodd" d="M80.0162 98.9292C94.479 98.9292 106.203 87.2048 106.203 72.7421C106.203 58.2793 94.479 46.5549 80.0162 46.5549C65.5535 46.5549 53.8291 58.2793 53.8291 72.7421C53.8291 87.2048 65.5535 98.9292 80.0162 98.9292ZM80.0162 93.1098C91.265 93.1098 100.384 83.9908 100.384 72.742C100.384 61.4932 91.265 52.3743 80.0162 52.3743C68.7674 52.3743 59.6484 61.4932 59.6484 72.742C59.6484 83.9908 68.7674 93.1098 80.0162 93.1098Z" fill="#AF0000"/>
<line x1="62.9917" y1="58.0009" x2="94.977" y2="88.2159" stroke="#AF0000" stroke-width="5.5"/>
</svg>
