<svg width="20" height="20" viewBox="0 0 20 20" fill="none" xmlns="http://www.w3.org/2000/svg">
<path d="M9.99984 7.15067L10.0002 7.15067C10.2826 7.1449 10.5515 7.02866 10.7492 6.8269C10.9469 6.62513 11.0576 6.3539 11.0576 6.07143C11.0576 5.78895 10.9469 5.51773 10.7492 5.31596C10.5515 5.11419 10.2826 4.99795 10.0002 4.99218L9.99984 4.99219C9.71742 4.99795 9.44852 5.11419 9.25083 5.31596C9.05313 5.51773 8.94241 5.78895 8.94241 6.07143C8.94241 6.3539 9.05313 6.62513 9.25083 6.8269C9.44852 7.02866 9.71742 7.1449 9.99984 7.15067ZM0.0078125 10C0.0078125 4.48199 4.48199 0.0078125 10 0.0078125C15.518 0.0078125 19.9922 4.48199 19.9922 10C19.9922 15.518 15.518 19.9922 10 19.9922C4.48199 19.9922 0.0078125 15.518 0.0078125 10ZM10.5357 15.0078C10.6382 15.0078 10.7221 14.924 10.7221 14.8214V8.75C10.7221 8.64747 10.6382 8.56362 10.5357 8.56362H9.46429C9.36176 8.56362 9.2779 8.64747 9.2779 8.75V14.8214C9.2779 14.924 9.36176 15.0078 9.46429 15.0078H10.5357Z" fill="white" stroke="black" stroke-width="0.015625"/>
</svg>
